<svg width="13" height="16" viewBox="0 0 13 16" fill="none" xmlns="http://www.w3.org/2000/svg">
<path d="M0.37183 8.65799L11.64 15.8579C11.7701 15.9409 11.9222 15.9895 12.0801 15.9985C12.2379 16.0074 12.3954 15.9764 12.5355 15.9086C12.6755 15.8409 12.7929 15.7391 12.8748 15.6142C12.9566 15.4894 12.9999 15.3462 13 15.2003V0.800517C13.0001 0.654501 12.9569 0.511243 12.8751 0.386269C12.7933 0.261295 12.676 0.159372 12.5358 0.0915458C12.3957 0.0237194 12.2382 -0.00742324 12.0803 0.00149315C11.9224 0.0104095 11.7701 0.0590448 11.64 0.142128L0.37183 7.34201C0.257032 7.41595 0.163279 7.51439 0.0985425 7.62895C0.0338058 7.74351 0 7.8708 0 8C0 8.1292 0.0338058 8.25649 0.0985425 8.37105C0.163279 8.48561 0.257032 8.58405 0.37183 8.65799V8.65799Z" fill="#3A3A3A"/>
</svg>
