<svg width="18" height="18" viewBox="0 0 18 18" fill="none" xmlns="http://www.w3.org/2000/svg">
<path d="M15.75 2.45106H4.81641L4.71094 1.99149C4.59375 1.40426 4.33008 0.925532 3.91992 0.555319C3.50977 0.185106 3.02344 0 2.46094 0H0.738281C0.527344 0 0.351562 0.0765957 0.210938 0.229787C0.0703125 0.382979 0 0.587234 0 0.842553C0 1.07234 0.0703125 1.26383 0.210938 1.41702C0.351562 1.57021 0.527344 1.64681 0.738281 1.64681H2.46094C2.90625 1.64681 3.16406 1.86383 3.23438 2.29787L4.95703 12.1021C5.09766 12.6383 5.37305 13.0723 5.7832 13.4043C6.19336 13.7362 6.64453 13.9021 7.13672 13.9021H14.2383C14.4727 13.9021 14.6602 13.8255 14.8008 13.6723C14.9414 13.5191 15.0117 13.3277 15.0117 13.0979C15.0117 12.5362 14.7539 12.2553 14.2383 12.2553H7.13672C6.80859 12.2553 6.57422 12.1021 6.43359 11.7957L6.36328 11.4511H13.8867C14.3555 11.4511 14.7832 11.2979 15.1699 10.9915C15.5566 10.6851 15.8203 10.2894 15.9609 9.80426L18 5.09362V4.90213C18 4.21277 17.7832 3.63191 17.3496 3.15957C16.916 2.68723 16.3828 2.45106 15.75 2.45106ZM14.625 9.15319V9.22979C14.5547 9.61277 14.3086 9.80426 13.8867 9.80426H6.08203L5.09766 4.09787H15.75C16.1719 4.09787 16.418 4.31489 16.4883 4.74894L14.625 9.15319ZM9 16.3532C9 16.8128 8.85352 17.2021 8.56055 17.5213C8.26758 17.8404 7.91016 18 7.48828 18C7.08984 18 6.74414 17.8404 6.45117 17.5213C6.1582 17.2021 6.01172 16.8128 6.01172 16.3532C6.01172 15.8936 6.1582 15.5043 6.45117 15.1851C6.74414 14.866 7.08984 14.7064 7.48828 14.7064C7.91016 14.7064 8.26758 14.866 8.56055 15.1851C8.85352 15.5043 9 15.8936 9 16.3532ZM15.0117 16.3532C15.0117 16.8128 14.8652 17.2021 14.5723 17.5213C14.2793 17.8404 13.9219 18 13.5 18C13.0781 18 12.7207 17.8404 12.4277 17.5213C12.1348 17.2021 11.9883 16.8128 11.9883 16.3532C11.9883 15.8936 12.1348 15.5043 12.4277 15.1851C12.7207 14.866 13.0781 14.7064 13.5 14.7064C13.9219 14.7064 14.2793 14.866 14.5723 15.1851C14.8652 15.5043 15.0117 15.8936 15.0117 16.3532Z" fill="#F2F3FF"/>
</svg>
