<svg width="21" height="33" viewBox="0 0 21 33" fill="none" xmlns="http://www.w3.org/2000/svg">
<path fill-rule="evenodd" clip-rule="evenodd" d="M0.430114 20.9239C0.56611 20.7876 0.727667 20.6794 0.905533 20.6056C1.0834 20.5318 1.27408 20.4938 1.46665 20.4938C1.65922 20.4938 1.8499 20.5318 2.02776 20.6056C2.20563 20.6794 2.36719 20.7876 2.50318 20.9239L10.2508 28.6745L17.9985 20.9239C18.2734 20.649 18.6463 20.4946 19.035 20.4946C19.4238 20.4946 19.7967 20.649 20.0716 20.9239C20.3465 21.1988 20.5009 21.5717 20.5009 21.9605C20.5009 22.3492 20.3465 22.7221 20.0716 22.997L11.2874 31.7812C11.1514 31.9175 10.9898 32.0257 10.812 32.0995C10.6341 32.1733 10.4434 32.2113 10.2508 32.2113C10.0583 32.2113 9.86759 32.1733 9.68973 32.0995C9.51186 32.0257 9.3503 31.9175 9.21431 31.7812L0.430114 22.997C0.293773 22.861 0.185602 22.6994 0.111796 22.5216C0.0379898 22.3437 0 22.153 0 21.9605C0 21.7679 0.0379898 21.5772 0.111796 21.3994C0.185602 21.2215 0.293773 21.0599 0.430114 20.9239Z" fill="#737382"/>
<path fill-rule="evenodd" clip-rule="evenodd" d="M10.2508 0C10.6391 0 11.0115 0.154246 11.2861 0.428805C11.5606 0.703365 11.7149 1.07575 11.7149 1.46403V27.8166C11.7149 28.2049 11.5606 28.5773 11.2861 28.8518C11.0115 29.1264 10.6391 29.2806 10.2508 29.2806C9.86255 29.2806 9.49017 29.1264 9.21561 28.8518C8.94105 28.5773 8.7868 28.2049 8.7868 27.8166V1.46403C8.7868 1.07575 8.94105 0.703365 9.21561 0.428805C9.49017 0.154246 9.86255 0 10.2508 0Z" fill="#737382"/>
</svg>
