<svg width="28" height="28" viewBox="0 0 28 28" fill="none" xmlns="http://www.w3.org/2000/svg">
<path d="M27.0741 11.3886H26.0001V11.3333H14.0001V16.6666H21.5354C20.4361 19.7713 17.4821 22 14.0001 22C9.58208 22 6.00008 18.418 6.00008 14C6.00008 9.58196 9.58208 5.99996 14.0001 5.99996C16.0394 5.99996 17.8947 6.76929 19.3074 8.02596L23.0787 4.25463C20.6974 2.03529 17.5121 0.666626 14.0001 0.666626C6.63675 0.666626 0.666748 6.63663 0.666748 14C0.666748 21.3633 6.63675 27.3333 14.0001 27.3333C21.3634 27.3333 27.3334 21.3633 27.3334 14C27.3334 13.106 27.2414 12.2333 27.0741 11.3886Z" fill="#FFC107"/>
<path d="M2.2041 7.79396L6.58477 11.0066C7.7701 8.07196 10.6408 5.99996 14.0001 5.99996C16.0394 5.99996 17.8948 6.76929 19.3074 8.02596L23.0788 4.25463C20.6974 2.03529 17.5121 0.666626 14.0001 0.666626C8.87877 0.666626 4.43743 3.55796 2.2041 7.79396Z" fill="#FF3D00"/>
<path d="M13.9999 27.3333C17.4439 27.3333 20.5732 26.0153 22.9392 23.872L18.8126 20.38C17.4289 21.4322 15.7382 22.0013 13.9999 22C10.5319 22 7.58722 19.7886 6.47788 16.7026L2.12988 20.0526C4.33655 24.3706 8.81788 27.3333 13.9999 27.3333Z" fill="#4CAF50"/>
<path d="M27.074 11.3887H26V11.3334H14V16.6667H21.5353C21.0095 18.1443 20.0622 19.4355 18.8107 20.3807L18.8127 20.3794L22.9393 23.8714C22.6473 24.1367 27.3333 20.6667 27.3333 14C27.3333 13.106 27.2413 12.2334 27.074 11.3887Z" fill="#1976D2"/>
</svg>
