<svg width="12" height="11" viewBox="0 0 12 11" fill="none" xmlns="http://www.w3.org/2000/svg">
<path d="M6.56881 10.7125C6.62298 10.677 7.89813 9.837 9.18855 8.61893C9.96642 7.8841 10.5929 7.15922 11.0485 6.4642C11.336 6.02501 11.5624 5.59008 11.718 5.17079C11.9055 4.66906 12 4.17586 12 3.70256C12.0014 3.20083 11.9028 2.71332 11.7097 2.25423C11.5235 1.8131 11.255 1.41336 10.9193 1.07737C10.5833 0.740387 10.1872 0.472587 9.75251 0.288539L6.56881 10.7125ZM6.56881 10.7125L6.2396 10.9286M6.56881 10.7125L6.2396 10.9286M5.76038 10.9286L5.99999 10.5635L6.2395 10.9284L6.0006 10.5625L6.03471 10.5106L5.76038 10.9286ZM5.76038 10.9286L5.43118 10.7125L5.76038 10.9286ZM5.76038 10.9286C5.90623 11.0238 6.09375 11.0238 6.2396 10.9286M5.76038 10.9286H6.2396M10.5656 1.43078C10.8552 1.72064 11.0875 2.06608 11.2488 2.44807H0.752598C0.913337 2.06597 1.14548 1.7206 1.43533 1.43122L1.43601 1.43054C1.72842 1.13749 2.06769 0.908309 2.44391 0.748931L2.44445 0.748698C2.83344 0.583364 3.2447 0.50001 3.67125 0.50001C4.26224 0.50001 4.83866 0.665499 5.34005 0.978474L5.34006 0.978483C5.46006 1.05338 5.57377 1.13546 5.68136 1.22476L6.00069 1.48979L6.32001 1.22476C6.4276 1.13546 6.54132 1.05338 6.66131 0.978483L6.66133 0.978474C7.16271 0.665499 7.73914 0.50001 8.33012 0.500011L8.3313 0.500009C8.75157 0.499019 9.16814 0.583444 9.55691 0.748696L9.55757 0.748974C9.93231 0.907629 10.2745 1.13878 10.5652 1.43039L10.5656 1.43078ZM11.2488 2.44808C11.416 2.84575 11.5012 3.2669 11.5 3.70118V3.70256C11.5 4.10901 11.4189 4.54296 11.2497 4.99574L11.2492 4.99686C11.1091 5.3746 10.9013 5.77612 10.6302 6.19032C10.2012 6.84466 9.60261 7.53994 8.84534 8.25533C7.586 9.44406 6.33875 10.2655 6.29458 10.2944L6.29448 10.2945L5.99999 10.4878L5.70551 10.2945L5.70556 10.2944L5.6976 10.2894C5.69775 10.2895 5.67732 10.2763 5.63494 10.2478C5.5946 10.2207 5.53752 10.1818 5.46607 10.1321C5.32315 10.0325 5.12327 9.88967 4.88522 9.71035C4.40837 9.35114 3.78218 8.84832 3.15484 8.25551L3.15479 8.25546C2.39745 7.54003 1.79882 6.8447 1.36982 6.19032L11.2488 2.44808ZM0.5 3.70256C0.5 3.26736 0.585348 2.84576 0.752582 2.44811L1.36977 6.19025C1.09919 5.77694 0.89228 5.37492 0.750241 4.99549C0.581077 4.5428 0.5 4.10894 0.5 3.70256Z" stroke="white"/>
</svg>
